<?xml version="1.0" encoding="UTF-8" standalone="no"?>
<!-- Created with Inkscape (http://www.inkscape.org/) -->

<svg
   width="512.00006"
   height="512.00122"
   viewBox="0 0 135.46668 135.46698"
   version="1.1"
   id="svg8"
   inkscape:version="1.1.2 (b8e25be833, 2022-02-05)"
   sodipodi:docname="icon.svg"
   xmlns:inkscape="http://www.inkscape.org/namespaces/inkscape"
   xmlns:sodipodi="http://sodipodi.sourceforge.net/DTD/sodipodi-0.dtd"
   xmlns="http://www.w3.org/2000/svg"
   xmlns:svg="http://www.w3.org/2000/svg"
   xmlns:rdf="http://www.w3.org/1999/02/22-rdf-syntax-ns#"
   xmlns:cc="http://creativecommons.org/ns#"
   xmlns:dc="http://purl.org/dc/elements/1.1/">
  <defs
     id="defs2" />
  <sodipodi:namedview
     id="base"
     pagecolor="#ffffff"
     bordercolor="#666666"
     borderopacity="1.0"
     inkscape:pageopacity="0"
     inkscape:pageshadow="2"
     inkscape:zoom="0.5"
     inkscape:cx="765"
     inkscape:cy="414"
     inkscape:document-units="mm"
     inkscape:current-layer="layer1"
     showgrid="false"
     showborder="true"
     inkscape:pagecheckerboard="true"
     inkscape:showpageshadow="false"
     inkscape:window-width="1920"
     inkscape:window-height="1009"
     inkscape:window-x="-8"
     inkscape:window-y="-8"
     inkscape:window-maximized="1"
     units="px"
     inkscape:snap-bbox="true"
     inkscape:snap-bbox-edge-midpoints="true"
     inkscape:snap-bbox-midpoints="true"
     inkscape:bbox-nodes="true"
     inkscape:snap-nodes="true"
     inkscape:snap-object-midpoints="true"
     inkscape:snap-center="true"
     inkscape:bbox-paths="true"
     showguides="true"
     inkscape:guide-bbox="true"
     inkscape:snap-intersection-paths="true"
     inkscape:snap-global="true"
     width="1024px" />
  <metadata
     id="metadata5">
    <rdf:RDF>
      <cc:Work
         rdf:about="">
        <dc:format>image/svg+xml</dc:format>
        <dc:type
           rdf:resource="http://purl.org/dc/dcmitype/StillImage" />
      </cc:Work>
    </rdf:RDF>
  </metadata>
  <g
     inkscape:label="Layer 1"
     inkscape:groupmode="layer"
     id="layer1"
     transform="translate(0,1751.0002)">
    <circle
       style="fill:#cb6600;fill-opacity:1;stroke-width:18.8976;stroke-linecap:round;stroke-miterlimit:4;stroke-dasharray:none"
       id="path5095"
       cx="67.733337"
       cy="-1683.2668"
       r="67.733337" />
    <path
       id="rect1072"
       style="stroke-width:1;stroke-linecap:round"
       d="m 27.583702,-1682.7283 39.93774,-12.1412 39.937738,12.1412 -13.116042,67.1951 H 40.699744 Z"
       sodipodi:nodetypes="cccccc" />
    <path
       id="path17957"
       style="fill:#000000;fill-opacity:1;stroke-width:1;stroke-linecap:round"
       d="m 111.60736,-1714.8401 11.03525,29.4354 -5.82652,-1.5609 -29.483311,-7.9002 z m 5.20873,27.8745 -6.33919,23.6571 -23.657227,-6.3391 6.339193,-23.6568 z" />
    <g
       id="g23330"
       style="fill:#ffd03e;fill-opacity:1">
      <path
         id="path17959"
         style="fill:#ffd03e;fill-opacity:1;stroke-width:4.99998;stroke-linecap:round"
         d="m 112.41239,-1688.1456 -5.89692,-1.58 -1.71659,6.4058 4.92168,1.3188 z"
         sodipodi:nodetypes="ccccc" />
      <path
         id="path17961"
         style="fill:#ffd03e;fill-opacity:1;stroke-width:4.99998;stroke-linecap:round"
         d="m 97.562396,-1692.1242 5.917314,1.5856 -1.72227,6.4281 -4.938665,-1.3234 z"
         sodipodi:nodetypes="ccccc" />
      <path
         id="path17963"
         style="fill:#ffd03e;fill-opacity:1;stroke-width:4.99998;stroke-linecap:round"
         d="m 108.35969,-1679.0452 -4.2932,-1.1502 -1.71686,6.4074 3.31723,0.8889 z"
         sodipodi:nodetypes="ccccc" />
      <path
         id="path17965"
         style="fill:#ffd03e;fill-opacity:1;stroke-width:4.99998;stroke-linecap:round"
         d="m 96.522355,-1682.217 4.293095,1.1504 -1.716861,6.4074 -3.31719,-0.8888 z"
         sodipodi:nodetypes="ccccc" />
    </g>
    <path
       style="fill:#000000;fill-opacity:1;stroke-width:0.999992;stroke-linecap:round"
       d="m 53.912424,-1722.7328 v 42.1609 H 81.13046 v -42.1609 z"
       id="path2484" />
    <path
       style="fill:#000000;fill-opacity:1;stroke-width:1;stroke-linecap:round"
       d="m 67.521442,-1751.0001 -21.638249,28.2674 h 43.276498 z"
       id="rect1518" />
    <path
       id="path4015"
       style="fill:#ffd03e;fill-opacity:1;stroke-width:3.77952;stroke-linecap:round"
       d="m 60.63847,-1647.2542 a 13.765776,13.765776 0 0 0 -6.882971,11.9212 v 19.7998 h 27.531884 v -19.7998 a 13.765776,13.765776 0 0 0 -6.882971,-11.9212 13.765776,13.765776 0 0 0 -13.765942,0 z" />
    <g
       id="g6273"
       transform="matrix(0.68517405,0.39558542,-0.39558542,0.68517405,-567.60404,-522.79878)"
       style="fill:#ffffff;fill-opacity:1;stroke:#d62c2c;stroke-width:1.26395;stroke-opacity:1" />
    <path
       id="rect1328"
       style="fill:#000000;fill-opacity:1;stroke-width:1;stroke-linecap:round"
       d="m 23.859304,-1714.8889 -11.035245,29.4354 5.826511,-1.5609 29.483316,-7.9002 z m -5.208734,27.8745 6.339195,23.6572 23.657228,-6.3392 -6.339196,-23.6568 z" />
    <g
       id="g23324"
       style="fill:#ffd03e;fill-opacity:1">
      <path
         id="rect12173"
         style="fill:#ffd03e;fill-opacity:1;stroke-width:4.99998;stroke-linecap:round"
         d="m 23.054275,-1688.1944 5.896925,-1.58 1.716587,6.4058 -4.921684,1.3188 z"
         sodipodi:nodetypes="ccccc" />
      <path
         id="path12373"
         style="fill:#ffd03e;fill-opacity:1;stroke-width:4.99998;stroke-linecap:round"
         d="m 37.904268,-1692.1729 -5.917316,1.5855 1.722279,6.4281 4.938662,-1.3233 z"
         sodipodi:nodetypes="ccccc" />
      <path
         id="rect12397"
         style="fill:#ffd03e;fill-opacity:1;stroke-width:4.99998;stroke-linecap:round"
         d="m 27.106982,-1679.0939 4.293193,-1.1503 1.716861,6.4074 -3.317226,0.8889 z"
         sodipodi:nodetypes="ccccc" />
      <path
         id="path12711"
         style="fill:#ffd03e;fill-opacity:1;stroke-width:4.99998;stroke-linecap:round"
         d="m 38.944312,-1682.2657 -4.2931,1.1503 1.716866,6.4074 3.317186,-0.8888 z"
         sodipodi:nodetypes="ccccc" />
    </g>
    <g
       id="g18066"
       transform="matrix(0.95628432,0,0,0.95628432,0.86269323,-46.227315)"
       style="fill:#ffd03e;fill-opacity:1;stroke-width:1.04571">
      <path
         id="path18054"
         style="fill:#ffd03e;fill-opacity:1;stroke-width:5.22855;stroke-linecap:round"
         d="m 79.421795,-1753.1454 h -7.716329 l -1.7e-4,8.3824 6.440192,-10e-5 z"
         sodipodi:nodetypes="ccccc" />
      <path
         id="path18056"
         style="fill:#ffd03e;fill-opacity:1;stroke-width:5.22855;stroke-linecap:round"
         d="m 59.990191,-1753.1448 h 7.743042 l 1.58e-4,8.4114 -6.462448,-10e-5 z"
         sodipodi:nodetypes="ccccc" />
      <path
         id="path18058"
         style="fill:#ffd03e;fill-opacity:1;stroke-width:5.22855;stroke-linecap:round"
         d="m 77.450993,-1740.7091 -5.617778,10e-5 1e-5,8.3844 h 4.340726 z"
         sodipodi:nodetypes="ccccc" />
      <path
         id="path18060"
         style="fill:#ffd03e;fill-opacity:1;stroke-width:5.22855;stroke-linecap:round"
         d="m 61.961408,-1740.7091 h 5.617687 l -1.6e-5,8.3843 -4.340652,1e-4 z"
         sodipodi:nodetypes="ccccc" />
    </g>
  </g>
</svg>
